HIERARCHY
ROOT SpineBase
{
  OFFSET 0.000000 0.000000 0.000000
  CHANNELS 6 Xposition Yposition Zposition Zrotation Xrotation Yrotation
  JOINT SpineMid
  {
    OFFSET -0.000000 30.674780 0.000000
    CHANNELS 3 Zrotation Xrotation Yrotation
    JOINT SpineShoulder
    {
      OFFSET -0.184313 22.720229 -0.638982
      CHANNELS 3 Zrotation Xrotation Yrotation
      JOINT Neck
      {
        OFFSET -0.133168 7.488310 -0.505133
        CHANNELS 3 Zrotation Xrotation Yrotation
        JOINT Head
        {
          OFFSET 0.126807 13.651029 -1.034613
          CHANNELS 3 Zrotation Xrotation Yrotation
          End Site
          {
            OFFSET 0 0 0
          }
        }
      }
      JOINT ShoulderLeft
      {
        OFFSET -16.943689 -2.386085 5.385017
        CHANNELS 3 Zrotation Xrotation Yrotation
        JOINT ElbowLeft
        {
          OFFSET -6.490032 -28.850949 2.113879
          CHANNELS 3 Zrotation Xrotation Yrotation
          JOINT WristLeft
          {
            OFFSET -4.145581 -21.319205 -3.766046
            CHANNELS 3 Zrotation Xrotation Yrotation
            JOINT HandLeft
            {
              OFFSET -1.279163 -4.536463 -0.135732
              CHANNELS 3 Zrotation Xrotation Yrotation
              JOINT HandTipLeft
              {
                OFFSET -0.822948 -7.281686 0.354024
                CHANNELS 3 Zrotation Xrotation Yrotation
                End Site
                {
                  OFFSET 0 0 0
                }
              }
              JOINT ThumbLeft
              {
                OFFSET 2.327348 -0.144260 -3.359309
                CHANNELS 3 Zrotation Xrotation Yrotation
                End Site
                {
                  OFFSET 0 0 0
                }
              }
            }
          }
        }
      }
      JOINT ShoulderRight
      {
        OFFSET 15.800854 -4.657824 -4.244590
        CHANNELS 3 Zrotation Xrotation Yrotation
        JOINT ElbowRight
        {
          OFFSET 7.065618 -26.972894 0.968688
          CHANNELS 3 Zrotation Xrotation Yrotation
          JOINT WristRight
          {
            OFFSET 2.823645 -21.465447 -3.714596
            CHANNELS 3 Zrotation Xrotation Yrotation
            JOINT HandRight
            {
              OFFSET -1.050409 -3.729380 -0.400049
              CHANNELS 3 Zrotation Xrotation Yrotation
              JOINT HandTipRight
              {
                OFFSET 0.510120 -7.601629 0.095053
                CHANNELS 3 Zrotation Xrotation Yrotation
                End Site
                {
                  OFFSET 0 0 0
                }
              }
              JOINT ThumbRight
              {
                OFFSET -3.895785 3.981615 0.395800
                CHANNELS 3 Zrotation Xrotation Yrotation
                End Site
                {
                  OFFSET 0 0 0
                }
              }
            }
          }
        }
      }
    }
  }
  JOINT HipLeft
  {
    OFFSET -8.050207 0.058530 -1.445185
    CHANNELS 3 Zrotation Xrotation Yrotation
    JOINT KneeLeft
    {
      OFFSET 1.629386 -34.941471 3.492012
      CHANNELS 3 Zrotation Xrotation Yrotation
      JOINT AnkleLeft
      {
        OFFSET 5.222313 -37.302098 7.772438
        CHANNELS 3 Zrotation Xrotation Yrotation
        JOINT FootLeft
        {
          OFFSET -3.173461 -5.143588 -12.271750
          CHANNELS 3 Zrotation Xrotation Yrotation
          End Site
          {
            OFFSET 0 0 0
          }
        }
      }
    }
  }
  JOINT HipRight
  {
    OFFSET 6.514931 0.418770 -5.499168
    CHANNELS 3 Zrotation Xrotation Yrotation
    JOINT KneeRight
    {
      OFFSET 4.952056 -38.102998 -2.368294
      CHANNELS 3 Zrotation Xrotation Yrotation
      JOINT AnkleRight
      {
        OFFSET 3.089722 -37.001912 9.989442
        CHANNELS 3 Zrotation Xrotation Yrotation
        JOINT FootRight
        {
          OFFSET -2.048444 -6.170738 -10.010335
          CHANNELS 3 Zrotation Xrotation Yrotation
          End Site
          {
            OFFSET 0 0 0
          }
        }
      }
    }
  }
}
MOTION
Frames: 6
Frame Time: 0.033333
81.129385 77.731026 406.359043 -3.381717 -5.003152 5.341498 0.076123 -0.142687 -5.631106 0.028745 -0.130339 -0.183744 3.058307 -7.485214 0.262014 0.000000 0.000000 0.000000 -11.116449 6.642601 0.293669 61.428542 33.611549 -29.175581 36.980358 23.979139 -8.240419 -18.580431 7.865239 0.369313 0.000000 0.000000 0.000000 0.000000 0.000000 0.000000 1.792843 -1.882925 -1.727578 -4.625804 33.209691 8.043556 -7.340858 13.013979 -13.975909 -0.432608 -2.244820 11.086281 0.000000 0.000000 0.000000 0.000000 0.000000 0.000000 -14.951469 24.861483 -1.837338 -7.921449 -9.745688 -7.413712 30.864495 -0.436690 -3.833102 0.000000 0.000000 0.000000 8.686862 6.001355 -6.147134 -4.255994 -9.061277 -0.472350 0.386410 18.998551 -4.322970 0.000000 0.000000 0.000000
79.727401 77.405919 405.485706 -1.905027 -5.199867 4.384981 0.077318 -0.120992 -4.571319 0.039632 -0.161022 -0.126822 1.641037 -8.588830 0.248046 0.000000 0.000000 0.000000 -11.697999 8.374424 0.123108 70.853416 32.616183 -34.082193 39.148572 25.607730 -9.487185 -17.832586 4.028731 5.581453 0.000000 0.000000 0.000000 0.000000 0.000000 0.000000 0.897550 -2.225238 -1.895233 -4.356057 34.019698 7.814554 -14.999283 11.266859 -13.697200 8.371760 2.091536 13.020084 0.000000 0.000000 0.000000 0.000000 0.000000 0.000000 -17.286299 25.264538 -0.436362 -7.092715 -10.597522 -7.381673 30.699817 -2.544140 -3.264594 0.000000 0.000000 0.000000 7.679424 6.165154 -5.217566 -3.629777 -9.507967 -0.028707 -0.201103 19.610936 -5.328732 0.000000 0.000000 0.000000
78.152166 77.161283 404.626263 -0.183393 -5.464571 3.045272 0.002469 -0.084052 -3.104416 -0.036784 -0.151343 -0.063994 -0.389135 -9.740299 0.180507 0.000000 0.000000 0.000000 -12.706721 9.772125 -0.008838 79.536640 30.925507 -38.084152 49.169363 28.732863 -11.591830 -23.339417 -3.374949 11.520523 0.000000 0.000000 0.000000 0.000000 0.000000 0.000000 -0.222393 -2.552408 -2.060376 -4.188456 34.196108 7.600911 -17.838426 8.729134 -13.203692 12.022676 3.948017 12.684383 0.000000 0.000000 0.000000 0.000000 0.000000 0.000000 -19.743635 25.645646 1.392469 -6.538983 -11.941040 -7.577629 30.461163 -1.896652 -4.439361 0.000000 0.000000 0.000000 6.345171 6.070586 -3.899336 -2.870225 -9.352156 0.519418 -0.761852 19.958238 -6.554231 0.000000 0.000000 0.000000
76.305742 77.009609 403.677171 1.358454 -5.690457 1.711300 -0.083229 -0.069127 -1.649900 -0.088384 -0.167717 -0.008389 -2.450881 -10.526162 0.091662 0.000000 0.000000 0.000000 -13.556524 11.130813 -0.139789 87.633296 29.437424 -42.021131 52.749797 27.230260 7.019976 -28.330977 2.058301 3.390058 0.000000 0.000000 0.000000 0.000000 0.000000 0.000000 -1.183211 -2.912488 -2.227235 -3.955873 34.167666 7.326097 -23.349856 6.244168 -12.723029 17.065752 6.889456 12.052354 0.000000 0.000000 0.000000 0.000000 0.000000 0.000000 -22.176297 25.944806 3.217370 -4.804992 -13.942887 -7.383235 29.150408 -0.922309 -5.994996 0.000000 0.000000 0.000000 5.449195 5.151174 -2.669892 -2.279790 -8.373308 1.190866 -1.356209 20.197364 -7.895834 0.000000 0.000000 0.000000
74.301005 77.003400 402.712668 2.927787 -6.093148 0.129081 -0.175581 -0.094830 0.065244 -0.163645 -0.183666 0.046409 -4.865518 -10.968506 -0.022591 0.000000 0.000000 0.000000 -13.798095 12.156857 -0.216293 93.890559 26.851584 -44.602622 52.393877 27.154273 20.636630 -30.612819 7.512344 -4.496957 0.000000 0.000000 0.000000 0.000000 0.000000 0.000000 -2.097025 -2.677063 -2.282021 -3.658940 33.642361 6.881545 -34.668828 6.402242 -12.466299 29.571966 9.597007 12.455978 0.000000 0.000000 0.000000 0.000000 0.000000 0.000000 -24.411193 26.014803 5.243440 -2.951486 -16.016359 -7.000694 27.504012 0.177737 -7.904811 0.000000 0.000000 0.000000 4.160676 4.550813 -1.108858 -0.999865 -7.198165 1.887576 -2.048567 20.032213 -9.609506 0.000000 0.000000 0.000000
72.315921 77.033972 401.791534 3.931393 -6.435836 -1.771806 -0.067156 -0.236881 2.058839 -0.177235 -0.250401 0.087970 -5.008057 -11.342268 0.111620 0.000000 0.000000 0.000000 -14.362652 14.217145 -0.340679 98.368751 25.010310 -45.082017 51.571295 27.831180 34.161984 -29.987332 12.045649 -10.443166 0.000000 0.000000 0.000000 0.000000 0.000000 0.000000 -2.990277 -2.501920 -2.369029 -2.417728 32.749567 6.058134 -43.815213 10.736028 -11.164088 38.101888 9.271151 14.292464 0.000000 0.000000 0.000000 0.000000 0.000000 0.000000 -25.970447 25.562737 7.369884 -1.489958 -17.494257 -6.555433 25.987160 1.047880 -9.337632 0.000000 0.000000 0.000000 3.167869 4.067222 0.794690 0.600887 -5.878235 2.507591 -3.048116 19.538473 -10.961651 0.000000 0.000000 0.000000
